{"title":"Women and Sometimes Men 2018 1080p WEB-DL DD 5.1 x264 MW","magnet":"magnet:?xt=urn:btih:b27b8d7d03da55d24e1e15091d2620ffc3078d2a&dn=Women+and+Sometimes+Men+2018+1080p+WEB-DL+DD+5.1+x264+MW&tr=udp%3A%2F%2Ftracker.leechers-paradise.org%3A6969&tr=udp%3A%2F%2Fzer0day.ch%3A1337&tr=udp%3A%2F%2Fopen.demonii.com%3A1337&tr=udp%3A%2F%2Ftracker.coppersurfer.tk%3A6969&tr=udp%3A%2F%2Fexodus.desync.com%3A6969","uploader":"MFreaky","categoryP":"video","categoryS":"hd___movies","size":"1848301154","seeders":"7","leechers":"20","description":" <a href=\"https://pichub.site/image/DFdoT\" rel=\"nofollow\" target=\"_NEW\">https://pichub.site/image/DFdoT</a> <a href=\"\nhttps://pichub.site/image/DF7bN\" rel=\"nofollow\" target=\"_NEW\">\nhttps://pichub.site/image/DF7bN</a> <a href=\"\nhttps://pichub.site/image/DFccD\" rel=\"nofollow\" target=\"_NEW\">\nhttps://pichub.site/image/DFccD</a> <a href=\"\nhttps://pichub.site/image/DFkUZ\" rel=\"nofollow\" target=\"_NEW\">\nhttps://pichub.site/image/DFkUZ</a> <a href=\"\nhttps://pichub.site/image/DFCSI\" rel=\"nofollow\" target=\"_NEW\">\nhttps://pichub.site/image/DFCSI</a>\r\n\r\nIMDB <a href=\"\nhttps://www.imdb.com/title/tt4344742/\" rel=\"nofollow\" target=\"_NEW\">\nhttps://www.imdb.com/title/tt4344742/</a>\r\n\r\nVideo\r\nID                                       : 1\r\nFormat                                   : AVC\r\nFormat/Info                              : Advanced Video Codec\r\nFormat profile                           : High@L4.1\r\nFormat settings                          : CABAC / 4 Ref Frames\r\nFormat settings, CABAC                   : Yes\r\nFormat settings, RefFrames               : 4 frames\r\nCodec ID                                 : V_MPEG4/ISO/AVC\r\nDuration                                 : 1 h 26 min\r\nBit rate                                 : 2 500 kb/s\r\nWidth                                    : 1 920 pixels\r\nHeight                                   : 800 pixels\r\nDisplay aspect ratio                     : 2.40:1\r\nFrame rate mode                          : Constant\r\nFrame rate                               : 23.976 (24000/1001) FPS\r\nColor space                              : YUV\r\nChroma subsampling                       : 4:2:0\r\nBit depth                                : 8 bits\r\nScan type                                : Progressive\r\nBits/(Pixel*Frame)                       : 0.068\r\nStream size                              : 1.49 GiB (86%)\r\nWriting library                          : x264 core 155 r2901 7d0ff22\r\nDefault                                  : Yes\r\nForced                                   : No\r\n\r\nAudio\r\nID                                       : 2\r\nFormat                                   : AC-3\r\nFormat/Info                              : Audio Coding 3\r\nCodec ID                                 : A_AC3\r\nDuration                                 : 1 h 26 min\r\nBit rate mode                            : Constant\r\nBit rate                                 : 384 kb/s\r\nChannel(s)                               : 6 channels\r\nChannel positions                        : Front: L C R, Side: L R, LFE\r\nSampling rate                            : 48.0 kHz\r\nFrame rate                               : 31.250 FPS (1536 SPF)\r\nBit depth                                : 16 bits\r\nCompression mode                         : Lossy\r\nStream size                              : 239 MiB (14%)\r\nLanguage                                 : English\r\nService kind                             : Complete Main\r\nDefault                                  : Yes\r\nForced                                   : No","last_updated":"2018-09-11T12:10:50.452Z","parsed":{"xt":"urn:btih:b27b8d7d03da55d24e1e15091d2620ffc3078d2a","dn":"Women and Sometimes Men 2018 1080p WEB-DL DD 5.1 x264 MW","tr":["udp://exodus.desync.com:6969","udp://open.demonii.com:1337","udp://tracker.coppersurfer.tk:6969","udp://tracker.leechers-paradise.org:6969","udp://zer0day.ch:1337"],"infoHash":"b27b8d7d03da55d24e1e15091d2620ffc3078d2a","infoHashBuffer":{"type":"Buffer","data":[178,123,141,125,3,218,85,210,78,30,21,9,29,38,32,255,195,7,141,42]},"name":"Women and Sometimes Men 2018 1080p WEB-DL DD 5.1 x264 MW","announce":["udp://exodus.desync.com:6969","udp://open.demonii.com:1337","udp://tracker.coppersurfer.tk:6969","udp://tracker.leechers-paradise.org:6969","udp://zer0day.ch:1337"],"urlList":[]}}